<svg width="445" height="75" viewBox="0 0 445 75" fill="none" xmlns="http://www.w3.org/2000/svg">
<path d="M14.7827 19.1686L0 4.36636V0.667969H40.654L55.4366 15.468V22.8691L40.654 37.6691L55.4366 52.4692V59.8703L40.654 74.6703H0V70.9698L14.7827 56.1697L0 41.3697V33.9686L14.7827 19.1686Z" fill="white"/>
<path d="M64.6758 15.468L79.4606 0.667969H105.33L120.115 15.468V74.6703H107.179L92.3963 59.8703L77.6114 74.6703H64.6758V15.468Z" fill="white"/>
<path d="M129.398 74.6703H142.334L157.117 59.8703L171.899 74.6703H184.835V52.4692L170.052 37.6691L184.835 22.8691V15.468L170.052 0.667969H129.398V4.36636L144.181 19.1686L129.398 33.9686V74.6703Z" fill="white"/>
<path d="M194.074 0.667969H207.01L221.795 15.468L236.577 0.667969H249.513V22.8691L234.728 37.6691L249.513 52.4692V74.6703H236.577L221.795 59.8703L207.01 74.6703H194.074V0.667969Z" fill="white"/>
<path d="M270.883 45.5718L273.438 29.7695H279.33L281.175 36.2374C281.412 37.0672 281.506 37.8495 281.53 38.0607H281.672C281.696 37.3732 281.791 36.8991 281.98 36.2374L283.825 29.7695H289.67L292.248 45.5718H286.735L286.025 38.4875C285.978 37.9422 285.93 37.5866 285.93 36.9228H285.836C285.765 37.3258 285.622 37.9422 285.528 38.2504L283.186 45.5718H279.825L277.72 38.6534C277.554 38.0844 277.436 37.5866 277.412 36.9228H277.246C277.246 37.2331 277.246 37.8474 277.223 38.1556L276.441 45.5696H270.883V45.5718Z" fill="white"/>
<path d="M318.426 45.5718V29.7695H329.075V34.1059H324.152V35.5736H328.625V39.7203H324.152V41.2376H329.217V45.5718H318.426Z" fill="white"/>
<path d="M355.324 45.5718V29.7695H361.406C362.732 29.7695 366.092 29.8881 368.387 32.164C369.403 33.1834 370.516 34.9594 370.516 37.8732C370.516 39.5069 370.208 41.6169 368.482 43.3454C367.534 44.3174 365.69 45.5718 362.826 45.5718H355.324ZM361.003 40.7376H361.429C362.092 40.7376 363.061 40.7138 363.866 40.0026C364.411 39.5285 364.79 38.7224 364.79 37.7288C364.79 36.7094 364.387 35.8581 363.866 35.3602C363.179 34.7201 362.282 34.6016 361.619 34.6016H361.003V40.7376Z" fill="white"/>
<path d="M396.602 45.5718V29.7695H402.328V45.5718H396.602Z" fill="white"/>
<path d="M434.046 43.6062L433.62 45.5718H427.562L433.028 29.7695H439.37L445.002 45.5718H438.92L438.399 43.6062H434.046ZM436.367 35.0542H436.154C436.13 35.7158 436.036 36.2611 435.893 36.8301L435.112 39.8625H437.407L436.673 36.8301C436.531 36.2137 436.436 35.621 436.367 35.0542Z" fill="white"/>
</svg>
