<svg width="187" height="79" viewBox="0 0 187 79" fill="none" xmlns="http://www.w3.org/2000/svg">
<path d="M11.0601 13.8408L0 2.76817V0H30.4165L41.4766 11.0727V16.6074L30.4165 27.6801L41.4766 38.7511V44.2875L30.4165 55.3585H0V52.5904L11.0601 41.5193L0 30.4482V24.9119L11.0601 13.8408Z" fill="white"/>
<path d="M48.3892 11.0727L59.4509 0H78.8057L89.8674 11.0727V55.3585H80.1892L69.1275 44.2875L58.0674 55.3585H48.3892V11.0727Z" fill="white"/>
<path d="M96.814 55.3585H106.491L117.552 44.2875L128.612 55.3585H138.291V38.7511L127.23 27.6801L138.291 16.6074V11.0727L127.23 0H96.814V2.76817L107.874 13.8408L96.814 24.9119V55.3585Z" fill="white"/>
<path d="M145.204 0H154.882L165.942 11.0727L177.004 0H186.682V16.6074L175.62 27.6801L186.682 38.7511V55.3585H177.004L165.942 44.2875L154.882 55.3585H145.204V0Z" fill="white"/>
<path d="M28.7607 78.9999L30.6725 67.1792H35.0808L36.4611 72.0174C36.6383 72.6382 36.7091 73.2234 36.7269 73.3814H36.8332C36.8509 72.8671 36.9217 72.5124 37.0635 72.0174L38.4438 67.1792H42.8166L44.7461 78.9999H40.6213L40.0898 73.7006C40.0544 73.2927 40.019 73.0267 40.019 72.5301H39.9481C39.8949 72.8316 39.7886 73.2927 39.7178 73.5233L37.9654 78.9999H35.4512L33.8761 73.8247C33.752 73.3991 33.6635 73.0267 33.6457 72.5301H33.5217C33.5217 72.7623 33.5217 73.2218 33.504 73.4523L32.9194 78.9983H28.7607V78.9999Z" fill="white"/>
<path d="M64.3311 78.9999V67.1792H72.2988V70.423H68.6153V71.5209H71.9622V74.6228H68.6153V75.7578H72.4051V78.9999H64.3311Z" fill="white"/>
<path d="M91.939 78.9999V67.1792H96.489C97.4811 67.1792 99.9953 67.2679 101.712 68.9704C102.472 69.7329 103.305 71.0614 103.305 73.2411C103.305 74.4632 103.075 76.0415 101.783 77.3345C101.074 78.0616 99.6941 78.9999 97.552 78.9999H91.939ZM96.1878 75.3854H96.5067C97.0027 75.3854 97.7275 75.3676 98.3299 74.8356C98.7374 74.4809 99.0209 73.8779 99.0209 73.1347C99.0209 72.3721 98.7197 71.7353 98.3299 71.3629C97.8161 70.8841 97.1445 70.7954 96.6484 70.7954H96.1878V75.3854Z" fill="white"/>
<path d="M122.819 78.9999V67.1792H127.104V78.9999H122.819Z" fill="white"/>
<path d="M150.836 77.5296L150.517 78.9999H145.984L150.074 67.1792H154.819L159.032 78.9999H154.482L154.092 77.5296H150.836ZM152.57 71.1323H152.411C152.393 71.6273 152.322 72.0352 152.216 72.4608L151.631 74.7292H153.348L152.799 72.4608C152.694 72.0013 152.623 71.558 152.57 71.1323Z" fill="white"/>
<path d="M11.0601 13.8408L0 2.76817V0H30.4165L41.4766 11.0727V16.6074L30.4165 27.6801L41.4766 38.7511V44.2875L30.4165 55.3585H0V52.5904L11.0601 41.5193L0 30.4482V24.9119L11.0601 13.8408Z" fill="white"/>
<path d="M48.3892 11.0727L59.4509 0H78.8057L89.8674 11.0727V55.3585H80.1892L69.1275 44.2875L58.0674 55.3585H48.3892V11.0727Z" fill="white"/>
<path d="M96.814 55.3585H106.491L117.552 44.2875L128.612 55.3585H138.291V38.7511L127.23 27.6801L138.291 16.6074V11.0727L127.23 0H96.814V2.76817L107.874 13.8408L96.814 24.9119V55.3585Z" fill="white"/>
<path d="M145.204 0H154.882L165.942 11.0727L177.004 0H186.682V16.6074L175.62 27.6801L186.682 38.7511V55.3585H177.004L165.942 44.2875L154.882 55.3585H145.204V0Z" fill="white"/>
<path d="M28.7607 78.9999L30.6725 67.1792H35.0808L36.4611 72.0174C36.6383 72.6382 36.7091 73.2234 36.7269 73.3814H36.8332C36.8509 72.8671 36.9217 72.5124 37.0635 72.0174L38.4438 67.1792H42.8166L44.7461 78.9999H40.6213L40.0898 73.7006C40.0544 73.2927 40.019 73.0267 40.019 72.5301H39.9481C39.8949 72.8316 39.7886 73.2927 39.7178 73.5233L37.9654 78.9999H35.4512L33.8761 73.8247C33.752 73.3991 33.6635 73.0267 33.6457 72.5301H33.5217C33.5217 72.7623 33.5217 73.2218 33.504 73.4523L32.9194 78.9983H28.7607V78.9999Z" fill="white"/>
<path d="M64.3311 78.9999V67.1792H72.2988V70.423H68.6153V71.5209H71.9622V74.6228H68.6153V75.7578H72.4051V78.9999H64.3311Z" fill="white"/>
<path d="M91.939 78.9999V67.1792H96.489C97.4811 67.1792 99.9953 67.2679 101.712 68.9704C102.472 69.7329 103.305 71.0614 103.305 73.2411C103.305 74.4632 103.075 76.0415 101.783 77.3345C101.074 78.0616 99.6941 78.9999 97.552 78.9999H91.939ZM96.1878 75.3854H96.5067C97.0027 75.3854 97.7275 75.3676 98.3299 74.8356C98.7374 74.4809 99.0209 73.8779 99.0209 73.1347C99.0209 72.3721 98.7197 71.7353 98.3299 71.3629C97.8161 70.8841 97.1445 70.7954 96.6484 70.7954H96.1878V75.3854Z" fill="white"/>
<path d="M122.819 78.9999V67.1792H127.104V78.9999H122.819Z" fill="white"/>
<path d="M150.836 77.5296L150.517 78.9999H145.984L150.074 67.1792H154.819L159.032 78.9999H154.482L154.092 77.5296H150.836ZM152.57 71.1323H152.411C152.393 71.6273 152.322 72.0352 152.216 72.4608L151.631 74.7292H153.348L152.799 72.4608C152.694 72.0013 152.623 71.558 152.57 71.1323Z" fill="white"/>
</svg>
