<svg width="85" height="85" viewBox="0 0 32 32" fill="none" xmlns="http://www.w3.org/2000/svg"
                        class="mr-2 h-8 w-8 dark:hidden">
                        <rect width="32" height="32" rx="16" fill="#1C2024"></rect>
                        <path
                            d="M9.74298 13.2142L10.4345 12.3722L10.4553 12.5275C10.4719 12.6506 10.492 12.7743 10.5158 12.8986C10.963 15.2352 12.5605 17.1836 15.2315 18.6925C17.5532 20.0085 18.905 21.5216 19.2945 23.1812C19.457 23.8738 19.486 24.5551 19.4156 25.1509L19.4113 25.1878L19.3777 25.2041C18.3299 25.7139 17.1519 26 15.9068 26C11.5401 26 7.9999 22.4805 7.9999 18.1387C7.9999 16.2745 8.65252 14.5617 9.74298 13.2142Z"
                            fill="url(#paint0_linear_13441_104026)"></path>
                        <path
                            d="M9.74298 13.2142L10.4345 12.3722L10.4553 12.5275C10.4719 12.6506 10.492 12.7743 10.5158 12.8986C10.963 15.2352 12.5605 17.1836 15.2315 18.6925C17.5532 20.0085 18.905 21.5216 19.2945 23.1812C19.457 23.8738 19.486 24.5551 19.4156 25.1509L19.4113 25.1878L19.3777 25.2041C18.3299 25.7139 17.1519 26 15.9068 26C11.5401 26 7.9999 22.4805 7.9999 18.1387C7.9999 16.2745 8.65252 14.5617 9.74298 13.2142Z"
                            fill="url(#paint1_radial_13441_104026)" fill-opacity="0.8"></path>
                        <path
                            d="M22.0964 13.2445L22.0959 13.2456C23.1712 14.5883 23.8139 16.289 23.8139 18.1387C23.8139 20.0159 23.152 21.7396 22.0476 23.0914L21.9526 23.2078L21.9274 23.0599C21.9059 22.9341 21.8807 22.8071 21.8515 22.679C21.2988 20.2609 19.4981 18.1873 16.5344 16.5083C14.5331 15.3777 13.3876 14.0162 13.0868 12.4693C12.8926 11.469 13.037 10.4643 13.3161 9.60377C13.5951 8.74349 14.0101 8.02271 14.3627 7.58877L15.5158 6.18464C15.7179 5.93845 16.0963 5.93845 16.2985 6.18464L22.0964 13.2445Z"
                            fill="url(#paint2_linear_13441_104026)"></path>
                        <path
                            d="M22.0964 13.2445L22.0959 13.2456C23.1712 14.5883 23.8139 16.289 23.8139 18.1387C23.8139 20.0159 23.152 21.7396 22.0476 23.0914L21.9526 23.2078L21.9274 23.0599C21.9059 22.9341 21.8807 22.8071 21.8515 22.679C21.2988 20.2609 19.4981 18.1873 16.5344 16.5083C14.5331 15.3777 13.3876 14.0162 13.0868 12.4693C12.8926 11.469 13.037 10.4643 13.3161 9.60377C13.5951 8.74349 14.0101 8.02271 14.3627 7.58877L15.5158 6.18464C15.7179 5.93845 16.0963 5.93845 16.2985 6.18464L22.0964 13.2445Z"
                            fill="url(#paint3_radial_13441_104026)" fill-opacity="0.8"></path>
                        <defs>
                            <linearGradient id="paint0_linear_13441_104026" x1="7.9999" y1="6" x2="25.6333" y2="7.75886"
                                gradientUnits="userSpaceOnUse">
                                <stop stop-color="#DAF7FF"></stop>
                                <stop offset="1" stop-color="#47D6FF"></stop>
                            </linearGradient>
                            <radialGradient id="paint1_radial_13441_104026" cx="0" cy="0" r="1"
                                gradientUnits="userSpaceOnUse"
                                gradientTransform="translate(15.9999 6) rotate(68.1986) scale(21.5407 15.3777)">
                                <stop offset="0.00674634" stop-color="white"></stop>
                                <stop offset="1" stop-color="white" stop-opacity="0"></stop>
                            </radialGradient>
                            <linearGradient id="paint2_linear_13441_104026" x1="7.9999" y1="6" x2="25.6333" y2="7.75886"
                                gradientUnits="userSpaceOnUse">
                                <stop stop-color="#DAF7FF"></stop>
                                <stop offset="1" stop-color="#47D6FF"></stop>
                            </linearGradient>
                            <radialGradient id="paint3_radial_13441_104026" cx="0" cy="0" r="1"
                                gradientUnits="userSpaceOnUse"
                                gradientTransform="translate(15.9999 6) rotate(68.1986) scale(21.5407 15.3777)">
                                <stop offset="0.00674634" stop-color="white"></stop>
                                <stop offset="1" stop-color="white" stop-opacity="0"></stop>
                            </radialGradient>
                        </defs>
                    </svg>