<svg width="85" height="85" viewBox="0 0 32 32" fill="none" xmlns="http://www.w3.org/2000/svg">
                        <path
                            d="M28.9845 10.1169C29.1378 10.1742 29.2684 10.2796 29.3568 10.4174C29.4451 10.5552 29.4864 10.718 29.4744 10.8812L28.7957 22.1438C28.7078 23.6006 28.169 25.0787 27.274 26.4353C24.7036 30.3332 19.4094 32.1897 15.4481 30.5893C11.4867 28.9888 10.3602 24.5345 12.9274 20.6397C13.8163 19.293 15.1064 18.0916 16.5586 17.2004L27.9076 10.2461C28.25 10.0359 28.6604 9.98623 28.9845 10.1169Z"
                            fill="url(#paint0_linear_35228_594221)"></path>
                        <path
                            d="M23.7071 5.59446C23.8605 5.65172 23.9911 5.75717 24.0794 5.89497C24.1678 6.03277 24.209 6.19551 24.197 6.35875L23.5183 17.6214C23.4304 19.0781 22.8916 20.5563 21.9966 21.9129C19.4263 25.8108 14.132 27.6672 10.1707 26.0668C6.20939 24.4664 5.08282 20.0121 7.65008 16.1172C8.53895 14.7706 9.82908 13.5691 11.2812 12.6779L22.6302 5.72362C22.9726 5.51344 23.383 5.46376 23.7071 5.59446Z"
                            fill="url(#paint1_linear_35228_594221)"></path>
                        <path fill-rule="evenodd" clip-rule="evenodd"
                            d="M23.8145 12.7544L23.5212 17.6217C23.4333 19.0784 22.8945 20.5566 21.9995 21.9132C19.7577 25.3128 15.444 27.1596 11.7496 26.5144C11.2784 24.705 11.6344 22.6015 12.9274 20.6399C13.8163 19.2932 15.1064 18.0918 16.5586 17.2006L23.8145 12.7544Z"
                            fill="#73B1FF"></path>
                        <path fill-rule="evenodd" clip-rule="evenodd"
                            d="M19.8098 7.45215L18.5364 8.23246L18.2431 13.0994C18.2386 13.1805 18.2317 13.2615 18.224 13.3425L18.2172 13.4082C18.2103 13.477 18.2019 13.5466 18.1927 13.6153L18.1881 13.6558C18.1766 13.7323 18.1637 13.8163 18.1499 13.8974C18.1499 13.9113 18.1465 13.9255 18.1432 13.9397C18.1418 13.9457 18.1403 13.9518 18.1392 13.9577C18.1277 14.0235 18.1147 14.0892 18.1017 14.1549C18.0996 14.164 18.0977 14.1731 18.0959 14.1821C18.0939 14.192 18.0919 14.2019 18.0895 14.2115C18.0878 14.2195 18.086 14.2276 18.0842 14.2357C18.0688 14.3056 18.0523 14.3811 18.0345 14.4522C18.0345 14.463 18.031 14.4735 18.0275 14.4841C18.0256 14.49 18.0236 14.4959 18.0223 14.5019L18.0222 14.5021C18.0047 14.5693 17.9871 14.6365 17.968 14.7045L17.9519 14.7625C17.929 14.8428 17.9046 14.9223 17.8793 15.0018C17.8774 15.0079 17.8753 15.014 17.8732 15.0201C17.8711 15.0262 17.869 15.0323 17.8671 15.0385C17.8449 15.108 17.8212 15.1783 17.7968 15.2479C17.7891 15.267 17.7823 15.2868 17.7754 15.3067C17.7649 15.3357 17.7541 15.3646 17.7432 15.3938C17.7351 15.4155 17.727 15.4374 17.7188 15.4596L17.6714 15.5826C17.6523 15.6308 17.6325 15.6782 17.6126 15.7256C17.607 15.739 17.6018 15.7513 17.5969 15.763C17.5846 15.7926 17.574 15.818 17.5614 15.8471C17.5508 15.8715 17.5374 15.9013 17.5237 15.9316C17.5147 15.9515 17.5057 15.9717 17.4972 15.9908C17.4869 16.0139 17.4782 16.0325 17.4699 16.0502C17.4609 16.0693 17.4524 16.0874 17.4429 16.1092C17.4292 16.1407 17.4098 16.1795 17.3911 16.2173C17.3848 16.2299 17.3785 16.2424 17.3726 16.2544C17.3687 16.2624 17.3651 16.2698 17.3616 16.2768C17.3442 16.3122 17.3319 16.3373 17.3153 16.3699C17.304 16.3921 17.2889 16.421 17.2733 16.4509C17.2616 16.4734 17.2497 16.4964 17.2389 16.5174C17.2322 16.5303 17.2264 16.5417 17.221 16.5522C17.2062 16.5814 17.1952 16.6031 17.18 16.6289C17.1525 16.6802 17.1234 16.7314 17.0944 16.7818L17.0356 16.885C17.0027 16.9415 16.9683 16.9981 16.9339 17.0539C16.9171 17.0822 16.9003 17.1105 16.8827 17.1387C16.8307 17.2236 16.7772 17.3069 16.7222 17.3909C16.6886 17.4419 16.6542 17.4929 16.619 17.5438C16.5701 17.6157 16.5204 17.6867 16.4662 17.757L16.447 17.7823C16.402 17.8442 16.3553 17.9053 16.3087 17.9665C16.2984 17.9802 16.2878 17.9936 16.2773 18.0069C16.2714 18.0143 16.2656 18.0217 16.2598 18.0291C16.2495 18.0424 16.2394 18.0557 16.2293 18.0689C16.2005 18.1066 16.1719 18.1441 16.139 18.182C16.1279 18.1952 16.1171 18.2089 16.1065 18.2223C16.1018 18.2283 16.0971 18.2342 16.0924 18.2401L16.0924 18.2401C16.0366 18.3066 15.9808 18.3731 15.9243 18.438L15.9174 18.4457C15.8155 18.5593 15.7136 18.6704 15.6117 18.7789L15.5865 18.8049C15.4881 18.9068 15.3875 19.0087 15.2846 19.1106L15.2479 19.145C15.1569 19.2314 15.0644 19.317 14.9704 19.3995L14.9322 19.4331C14.8375 19.5164 14.7419 19.5975 14.6441 19.6769L14.6043 19.709C14.5106 19.7855 14.4151 19.8601 14.3177 19.933L14.2841 19.9582C14.1822 20.0331 14.0803 20.1062 13.9784 20.1776L13.9577 20.1913C13.8528 20.2637 13.7468 20.3345 13.6398 20.4038L13.6345 20.4076C13.5275 20.4756 13.4189 20.5421 13.3104 20.6071L13.2821 20.6239C13.1736 20.6871 13.0643 20.749 12.9542 20.8096L12.9175 20.8295C12.81 20.8876 12.701 20.9441 12.5904 20.9992L12.5476 21.0206C12.4292 21.0787 12.3092 21.1352 12.1892 21.1895L12.151 21.2063C12.0287 21.2608 11.9056 21.3118 11.7818 21.3592L11.7436 21.3752C11.6863 21.3981 11.6282 21.4203 11.5709 21.4417L11.5296 21.4577C11.4577 21.4845 11.3859 21.5105 11.3133 21.5342L11.2544 21.554L11.097 21.6076L11.016 21.6335L10.8784 21.6763L10.802 21.6985C10.7333 21.7191 10.6646 21.7382 10.5959 21.7573L10.5956 21.7574L10.5383 21.7726C10.4535 21.7956 10.3686 21.8177 10.283 21.8384L10.2257 21.8514C10.1569 21.8674 10.0874 21.8835 10.0186 21.898L9.9475 21.9133C9.86114 21.9308 9.77554 21.9477 9.68917 21.9637H9.67542C9.58829 21.979 9.50116 21.9935 9.41326 22.0065L9.34524 22.0172C9.25353 22.0302 9.16258 22.0424 9.07162 22.0531H9.05863C8.9715 22.0631 8.88361 22.0715 8.79571 22.0799L8.72693 22.0852C8.63598 22.0929 8.54503 22.0998 8.45331 22.1043H8.45102C8.36236 22.1089 8.27447 22.112 8.18657 22.1143H8.11855H7.8457H7.83729C7.76198 22.1143 7.68667 22.1109 7.61136 22.1075C7.59878 22.107 7.58619 22.1064 7.57361 22.1059H7.50559C7.4154 22.1013 7.32521 22.0959 7.23579 22.0883H7.22891C7.14102 22.0814 7.05389 22.0722 6.96676 22.0623L6.8995 22.0547C6.81084 22.044 6.72219 22.0317 6.63353 22.018H6.62818C6.57612 22.0102 6.52433 22.0016 6.47266 21.9926C6.65648 22.6981 6.96608 23.3589 7.39496 23.9491C7.39922 23.9499 7.40349 23.9508 7.40776 23.9516L7.47349 23.9646C7.55985 23.9807 7.64622 23.996 7.73258 24.009H7.73793C7.82659 24.0227 7.91525 24.0349 8.00467 24.0456L8.07116 24.0533C8.15829 24.0632 8.24619 24.0724 8.33332 24.0793H8.34096C8.43038 24.0869 8.52057 24.0923 8.61075 24.0969H8.67878C8.76667 24.1007 8.85456 24.1037 8.94246 24.1053H8.95087H9.22295H9.29174C9.36864 24.1053 9.44554 24.1012 9.52244 24.0971C9.53343 24.0965 9.54443 24.0959 9.55542 24.0953H9.56612C9.65707 24.0907 9.74802 24.0839 9.83974 24.0762L9.90852 24.0709L9.92113 24.0696C10.0041 24.0616 10.0878 24.0536 10.1714 24.0441H10.1837C10.2746 24.0334 10.3663 24.0212 10.4573 24.0082L10.5261 23.9975C10.6132 23.9845 10.7003 23.97 10.7875 23.9547H10.7989C10.8853 23.9386 10.9717 23.9218 11.0573 23.9042L11.1283 23.889C11.1913 23.8758 11.2537 23.8614 11.3165 23.8469L11.3362 23.8423L11.3935 23.8293C11.4784 23.8087 11.564 23.7865 11.6488 23.7636L11.7054 23.7483C11.7742 23.7292 11.8429 23.7101 11.9117 23.6895L11.9522 23.678L11.9866 23.6673L12.125 23.6245L12.2014 23.5985L12.3588 23.545L12.4185 23.5252L12.634 23.4487L12.6753 23.4327L12.8488 23.3662L12.8656 23.3593L12.887 23.3501C13.0108 23.2992 13.1338 23.2482 13.2561 23.1973L13.2936 23.1805C13.4143 23.1262 13.5336 23.0696 13.6528 23.0116L13.6688 23.0031L13.6956 22.9902C13.8049 22.9351 13.9142 22.8786 14.0219 22.8205L14.0594 22.7998C14.1695 22.7402 14.2785 22.6786 14.3865 22.6149L14.3957 22.6095L14.4156 22.5981C14.5241 22.5329 14.6319 22.4664 14.7389 22.3986L14.7442 22.3948C14.8512 22.326 14.9572 22.2552 15.0622 22.1823L15.0774 22.1724L15.0836 22.1685C15.1852 22.0967 15.2869 22.0241 15.3893 21.9492L15.4229 21.924C15.5202 21.8511 15.616 21.7765 15.7103 21.7L15.734 21.6809L15.7493 21.6679C15.8471 21.5884 15.9434 21.5072 16.0382 21.4241L16.0764 21.3905C16.1704 21.3079 16.2629 21.2223 16.3538 21.136L16.3752 21.1161L16.3905 21.1016C16.4924 21.0027 16.593 20.9008 16.6924 20.7959L16.7168 20.7699C16.8188 20.6614 16.9207 20.5503 17.0226 20.4367L17.0271 20.4321C17.0845 20.3671 17.1403 20.3006 17.1953 20.2341L17.2427 20.176C17.2832 20.1264 17.3229 20.0759 17.3627 20.0232L17.4124 19.9605C17.459 19.8994 17.5048 19.8382 17.5507 19.7763L17.569 19.7511C17.5968 19.7129 17.6241 19.6746 17.6516 19.636C17.6748 19.6034 17.6981 19.5707 17.7219 19.5378L17.7356 19.518C17.7655 19.4744 17.7953 19.4301 17.8243 19.3858C17.8793 19.3024 17.9336 19.2184 17.9856 19.1343C18.0024 19.1068 18.0192 19.0793 18.0353 19.051C18.0704 18.9944 18.1048 18.9379 18.1384 18.8806C18.1484 18.8634 18.1579 18.8462 18.1675 18.829C18.177 18.8118 18.1866 18.7946 18.1965 18.7774L18.1967 18.7771C18.2257 18.726 18.2546 18.6749 18.2829 18.6245C18.292 18.6077 18.301 18.5901 18.3099 18.5728C18.3203 18.5524 18.3306 18.5323 18.341 18.5137C18.3677 18.464 18.3937 18.4151 18.4174 18.3654L18.4174 18.3654C18.4365 18.3272 18.4556 18.289 18.474 18.25C18.4825 18.2319 18.4934 18.2099 18.505 18.1866C18.5185 18.1597 18.5327 18.131 18.545 18.1048L18.5479 18.0988C18.5691 18.0536 18.5817 18.0266 18.5985 17.9863C18.6081 17.9634 18.6204 17.9369 18.633 17.9098C18.6435 17.8872 18.6541 17.8642 18.6635 17.8426C18.6773 17.8111 18.6876 17.7856 18.698 17.7601C18.7032 17.7474 18.7083 17.7346 18.7139 17.7211C18.7186 17.7098 18.7238 17.6975 18.7293 17.6845C18.7435 17.6509 18.7596 17.6129 18.7728 17.5782C18.7806 17.5576 18.7876 17.5397 18.7943 17.5227C18.8032 17.4999 18.8114 17.4788 18.8202 17.4551C18.8275 17.4353 18.8344 17.418 18.8409 17.4015C18.848 17.3837 18.8547 17.3668 18.8615 17.3481L18.8775 17.3038L18.8981 17.245C18.9226 17.1754 18.9463 17.1051 18.9692 17.0356C18.9692 17.0276 18.9727 17.0197 18.9763 17.0118C18.9782 17.0075 18.9801 17.0032 18.9814 16.9989C19.0067 16.9224 19.0304 16.8399 19.0533 16.7596C19.0583 16.7439 19.0628 16.7277 19.0672 16.7119C19.0682 16.7084 19.0691 16.705 19.0701 16.7016L19.093 16.6182L19.0941 16.6142C19.1044 16.576 19.114 16.5404 19.1236 16.499L19.1366 16.4493C19.156 16.3688 19.1743 16.2886 19.1916 16.2086L19.2031 16.152C19.2168 16.0863 19.2291 16.0206 19.2413 15.9549L19.2413 15.9548C19.2413 15.9409 19.2447 15.9267 19.248 15.9125C19.2494 15.9065 19.2509 15.9004 19.252 15.8945C19.2658 15.8134 19.278 15.7332 19.2895 15.6522C19.2895 15.6392 19.2895 15.6262 19.2948 15.6124C19.3035 15.5471 19.3109 15.4811 19.3181 15.4157L19.3193 15.4053C19.3193 15.3918 19.321 15.3784 19.3226 15.3651C19.3237 15.3565 19.3248 15.348 19.3254 15.3396C19.333 15.2586 19.3399 15.1768 19.3453 15.0965L19.8098 7.45215Z"
                            fill="url(#paint2_linear_35228_594221)"></path>
                        <path fill-rule="evenodd" clip-rule="evenodd"
                            d="M25.0725 11.959L23.7991 12.7393L23.5058 17.6071C23.5012 17.6882 23.4943 17.7692 23.4867 17.8502L23.4798 17.9159C23.4729 17.9847 23.4645 18.0542 23.4554 18.123L23.4508 18.1635C23.4393 18.24 23.4263 18.324 23.4126 18.4051C23.4126 18.419 23.4092 18.4332 23.4059 18.4474C23.4044 18.4534 23.403 18.4595 23.4019 18.4654C23.3904 18.5312 23.3774 18.5969 23.3644 18.6626C23.3622 18.6717 23.3604 18.6808 23.3586 18.6898C23.3566 18.6997 23.3546 18.7096 23.3522 18.7192C23.3504 18.7272 23.3486 18.7353 23.3468 18.7435C23.3315 18.8134 23.3149 18.8888 23.2971 18.9599C23.2971 18.9707 23.2937 18.9812 23.2902 18.9918C23.2882 18.9977 23.2863 19.0036 23.2849 19.0096L23.2849 19.0097C23.2673 19.077 23.2498 19.1442 23.2307 19.2122L23.2146 19.2702C23.1917 19.3505 23.1672 19.43 23.142 19.5095C23.1401 19.5156 23.138 19.5217 23.1359 19.5278C23.1338 19.5339 23.1317 19.54 23.1298 19.5461C23.1076 19.6157 23.0839 19.686 23.0595 19.7556C23.0518 19.7747 23.0449 19.7945 23.0381 19.8144C23.0275 19.8433 23.0168 19.8723 23.0059 19.9015C22.9978 19.9232 22.9896 19.9451 22.9815 19.9673L22.9341 20.0903C22.915 20.1385 22.8951 20.1858 22.8753 20.2332L22.8753 20.2332C22.8696 20.2467 22.8645 20.259 22.8596 20.2707C22.8473 20.3002 22.8366 20.3257 22.8241 20.3548C22.8134 20.3792 22.8 20.409 22.7864 20.4394C22.7774 20.4593 22.7683 20.4794 22.7599 20.4985C22.7496 20.5216 22.7409 20.5402 22.7325 20.5579C22.7236 20.577 22.7151 20.5951 22.7056 20.6169C22.6918 20.6484 22.6725 20.6872 22.6537 20.7249C22.6475 20.7375 22.6412 20.7501 22.6353 20.7621C22.6314 20.7701 22.6277 20.7775 22.6243 20.7845C22.6069 20.8199 22.5945 20.845 22.5779 20.8775C22.5666 20.8998 22.5515 20.9288 22.536 20.9586C22.5243 20.9811 22.5123 21.0041 22.5015 21.0251C22.4948 21.038 22.489 21.0494 22.4837 21.0599C22.4689 21.0891 22.4578 21.1108 22.4427 21.1366C22.4152 21.1879 22.3861 21.2391 22.3571 21.2895L22.2982 21.3927C22.2654 21.4492 22.231 21.5058 22.1966 21.5616C22.1798 21.5899 22.1629 21.6181 22.1454 21.6464C22.0934 21.7313 22.0399 21.8146 21.9849 21.8986C21.9512 21.9496 21.9168 22.0005 21.8817 22.0515C21.8328 22.1233 21.7831 22.1944 21.7288 22.2647L21.7097 22.29C21.6646 22.3519 21.618 22.413 21.5714 22.4742C21.5611 22.4879 21.5505 22.5013 21.5399 22.5146C21.5341 22.522 21.5282 22.5294 21.5225 22.5368C21.5122 22.5501 21.502 22.5633 21.492 22.5765C21.4632 22.6143 21.4345 22.6518 21.4017 22.6897C21.3906 22.7029 21.3798 22.7165 21.3692 22.73C21.3645 22.736 21.3598 22.7419 21.3551 22.7478C21.2993 22.8143 21.2435 22.8808 21.1869 22.9457L21.1801 22.9534C21.0782 23.067 20.9762 23.1781 20.8743 23.2866L20.8491 23.3126C20.7508 23.4145 20.6501 23.5164 20.5472 23.6183L20.5105 23.6527C20.4196 23.7391 20.3271 23.8247 20.2331 23.9072L20.1949 23.9408C20.1001 24.0241 20.0046 24.1052 19.9067 24.1846L19.867 24.2167C19.7732 24.2932 19.6777 24.3678 19.5804 24.4407L19.5468 24.4659C19.4449 24.5408 19.343 24.6139 19.241 24.6853L19.2204 24.699C19.1154 24.7714 19.0095 24.8422 18.9025 24.9115L18.8971 24.9153C18.7901 24.9833 18.6816 25.0498 18.5731 25.1148L18.5448 25.1316C18.4362 25.1948 18.327 25.2567 18.2169 25.3173L18.1802 25.3372C18.0727 25.3953 17.9637 25.4518 17.8531 25.5069L17.8103 25.5283C17.6918 25.5864 17.5718 25.6429 17.4518 25.6972L17.4136 25.714C17.2913 25.7685 17.1683 25.8195 17.0445 25.8669L17.0063 25.8829C16.9489 25.9058 16.8908 25.928 16.8335 25.9494L16.7923 25.9654C16.7204 25.9922 16.6486 26.0182 16.576 26.0419L16.5171 26.0617L16.3597 26.1152L16.2786 26.1412L16.1411 26.184L16.0646 26.2062C15.9959 26.2268 15.9271 26.2459 15.8583 26.265L15.801 26.2803C15.7161 26.3033 15.6313 26.3254 15.5457 26.3461L15.4884 26.3591C15.4196 26.3751 15.35 26.3912 15.2812 26.4057L15.2102 26.421C15.1238 26.4385 15.0382 26.4554 14.9518 26.4714H14.9381C14.8509 26.4867 14.7638 26.5012 14.6759 26.5142L14.6079 26.5249C14.5162 26.5379 14.4252 26.5501 14.3343 26.5608H14.3213C14.2342 26.5708 14.1463 26.5792 14.0584 26.5876L13.9896 26.5929C13.8986 26.6006 13.8077 26.6075 13.716 26.612H13.7137C13.625 26.6166 13.5371 26.6197 13.4492 26.622H13.3812H13.1084H13.1C13.0246 26.622 12.9493 26.6186 12.8739 26.6152C12.8614 26.6147 12.8488 26.6141 12.8363 26.6136H12.7682C12.6781 26.609 12.5879 26.6036 12.4985 26.596H12.4916C12.4037 26.5891 12.3166 26.5799 12.2294 26.57L12.1622 26.5624C12.0735 26.5517 11.9848 26.5394 11.8962 26.5257H11.8908C11.8385 26.5179 11.7864 26.5092 11.7344 26.5001C11.9182 27.2056 12.2278 27.8664 12.6567 28.4566C12.6613 28.4575 12.6658 28.4584 12.6704 28.4593L12.7361 28.4723C12.8225 28.4884 12.9089 28.5037 12.9952 28.5167H13.0006C13.0893 28.5304 13.1779 28.5426 13.2673 28.5533L13.3338 28.561C13.421 28.5709 13.5088 28.5801 13.596 28.587H13.6036C13.693 28.5946 13.7832 28.6 13.8734 28.6045H13.9414C14.0293 28.6084 14.1172 28.6114 14.2051 28.613H14.2135H14.4856H14.5544C14.6313 28.613 14.7082 28.6089 14.7852 28.6048C14.7961 28.6042 14.8071 28.6036 14.8181 28.603H14.8288C14.9197 28.5984 15.0107 28.5916 15.1024 28.5839L15.1712 28.5786L15.1838 28.5773C15.2668 28.5693 15.3504 28.5613 15.4341 28.5518H15.4463C15.5373 28.5411 15.629 28.5289 15.7199 28.5159L15.7887 28.5052C15.8759 28.4922 15.963 28.4777 16.0501 28.4624H16.0616C16.148 28.4463 16.2343 28.4295 16.3199 28.4119L16.391 28.3967C16.4539 28.3835 16.5162 28.3691 16.579 28.3546L16.5989 28.35L16.6562 28.337C16.741 28.3164 16.8266 28.2942 16.9115 28.2713L16.968 28.256C17.0368 28.2369 17.1056 28.2178 17.1744 28.1972L17.2149 28.1857L17.2493 28.175L17.3876 28.1322L17.4641 28.1062L17.6215 28.0527L17.6811 28.0329L17.8967 27.9564L17.9379 27.9404L18.1114 27.8739L18.1282 27.867L18.1496 27.8578C18.2735 27.8069 18.3965 27.7559 18.5188 27.705L18.5562 27.6882C18.677 27.6339 18.7962 27.5773 18.9155 27.5193L18.9315 27.5108L18.9583 27.4979C19.0676 27.4428 19.1768 27.3863 19.2846 27.3282L19.3221 27.3075C19.4321 27.2479 19.5412 27.1863 19.6492 27.1226L19.6583 27.1172L19.6782 27.1058C19.7868 27.0405 19.8945 26.9741 20.0015 26.9063L20.0069 26.9025C20.1139 26.8337 20.2199 26.7629 20.3248 26.69L20.3401 26.6801L20.3462 26.6762C20.4479 26.6044 20.5495 26.5318 20.6519 26.4569L20.6856 26.4317C20.7829 26.3588 20.8787 26.2842 20.9729 26.2077L20.9966 26.1886L21.0119 26.1756C21.1097 26.0961 21.206 26.0149 21.3008 25.9318L21.339 25.8982C21.433 25.8156 21.5255 25.73 21.6165 25.6437L21.6379 25.6238L21.6532 25.6093C21.7551 25.5104 21.8557 25.4085 21.9551 25.3036L21.9795 25.2776C22.0814 25.1691 22.1833 25.058 22.2852 24.9443L22.2898 24.9398C22.3471 24.8748 22.4029 24.8083 22.458 24.7418L22.5053 24.6837C22.5458 24.634 22.5856 24.5836 22.6253 24.5309L22.675 24.4682C22.7216 24.4071 22.7675 24.3459 22.8134 24.284L22.8317 24.2588C22.8595 24.2206 22.8868 24.1823 22.9143 24.1437C22.9375 24.1111 22.9608 24.0784 22.9846 24.0455L22.9983 24.0257C23.0281 23.9821 23.0579 23.9378 23.087 23.8934C23.142 23.8101 23.1963 23.7261 23.2482 23.642C23.265 23.6145 23.2819 23.587 23.2979 23.5587C23.3331 23.5021 23.3675 23.4456 23.4011 23.3882C23.411 23.3711 23.4206 23.3539 23.4301 23.3367C23.4397 23.3195 23.4492 23.3023 23.4592 23.2851C23.4882 23.2339 23.5173 23.1827 23.5455 23.1322C23.5547 23.1154 23.5636 23.0979 23.5725 23.0805C23.583 23.0601 23.5933 23.04 23.6036 23.0214C23.6304 22.9717 23.6564 22.9228 23.6801 22.8731C23.6992 22.8349 23.7183 22.7967 23.7366 22.7577C23.7451 22.7396 23.7561 22.7176 23.7677 22.6943C23.7811 22.6674 23.7954 22.6387 23.8077 22.6125L23.8105 22.6064C23.8317 22.5612 23.8444 22.5343 23.8612 22.494C23.8708 22.4711 23.8831 22.4446 23.8956 22.4175C23.9061 22.3949 23.9168 22.3719 23.9262 22.3503C23.9399 22.3187 23.9503 22.2933 23.9606 22.2678C23.9658 22.2551 23.971 22.2423 23.9766 22.2288C23.9813 22.2176 23.9865 22.2052 23.992 22.1923C24.0062 22.1586 24.0222 22.1207 24.0355 22.0859C24.0433 22.0653 24.0503 22.0474 24.0569 22.0304C24.0658 22.0076 24.0741 21.9865 24.0828 21.9628C24.0902 21.943 24.097 21.9257 24.1036 21.9092C24.1106 21.8914 24.1174 21.8745 24.1241 21.8558L24.1402 21.8115L24.1608 21.7527C24.1853 21.6831 24.209 21.6128 24.2319 21.5432C24.2319 21.5353 24.2354 21.5274 24.2389 21.5195C24.2408 21.5152 24.2428 21.5109 24.2441 21.5066C24.2693 21.4301 24.293 21.3476 24.316 21.2673C24.3221 21.2482 24.3274 21.2284 24.3328 21.2093L24.3557 21.1259L24.3568 21.1219C24.3671 21.0837 24.3767 21.0481 24.3863 21.0067L24.3993 20.957C24.4186 20.8765 24.437 20.7963 24.4543 20.7163L24.4658 20.6597C24.4795 20.594 24.4917 20.5283 24.504 20.4625C24.504 20.4486 24.5073 20.4344 24.5107 20.4202C24.5121 20.4142 24.5135 20.4081 24.5147 20.4022C24.5284 20.3211 24.5407 20.2409 24.5521 20.1599C24.5521 20.1469 24.5521 20.1339 24.5575 20.1201C24.5662 20.0548 24.5735 19.9888 24.5808 19.9234L24.5819 19.913C24.5819 19.8995 24.5836 19.8861 24.5853 19.8728C24.5864 19.8642 24.5874 19.8557 24.588 19.8473C24.5957 19.7663 24.6026 19.6845 24.6079 19.6042L25.0725 11.959Z"
                            fill="url(#paint3_linear_35228_594221)"></path>
                        <path
                            d="M18.4337 1.072C18.587 1.12926 18.7177 1.2347 18.806 1.37251C18.8943 1.51031 18.9356 1.67305 18.9236 1.83629L18.2449 13.0989C18.157 14.5557 17.6182 16.0338 16.7232 17.3904C14.1529 21.2883 8.85861 23.1448 4.89728 21.5443C0.935949 19.9439 -0.190619 15.4896 2.37664 11.5948C3.26551 10.2481 4.55564 9.04663 6.0078 8.15547L17.3568 1.20116C17.6992 0.990983 18.1096 0.941304 18.4337 1.072Z"
                            fill="url(#paint4_linear_35228_594221)"></path>
                        <path fill-rule="evenodd" clip-rule="evenodd"
                            d="M18.5364 8.23242L18.2431 13.0989C18.1552 14.5556 17.6164 16.0338 16.7214 17.3904C14.4798 20.7898 10.1664 22.6365 6.4722 21.9917C6.00111 20.1824 6.35716 18.079 7.65008 16.1175C8.53895 14.7708 9.82908 13.5693 11.2812 12.6782L18.5364 8.23242Z"
                            fill="#A9F0FD"></path>
                        <defs>
                            <linearGradient id="paint0_linear_35228_594221" x1="20.5136" y1="10.0449" x2="20.5136"
                                y2="31.1639" gradientUnits="userSpaceOnUse">
                                <stop stop-color="#538CF1"></stop>
                                <stop offset="1" stop-color="#497CD6"></stop>
                            </linearGradient>
                            <linearGradient id="paint1_linear_35228_594221" x1="15.2362" y1="5.52246" x2="15.2362"
                                y2="26.6415" gradientUnits="userSpaceOnUse">
                                <stop stop-color="#92C2FF"></stop>
                                <stop offset="1" stop-color="#76B2FE"></stop>
                            </linearGradient>
                            <linearGradient id="paint2_linear_35228_594221" x1="13.1413" y1="7.45215" x2="13.1413"
                                y2="24.1053" gradientUnits="userSpaceOnUse">
                                <stop stop-color="#73B1FF"></stop>
                                <stop offset="1" stop-color="#63A8FF"></stop>
                            </linearGradient>
                            <linearGradient id="paint3_linear_35228_594221" x1="26.1883" y1="11.959" x2="26.1883"
                                y2="30.646" gradientUnits="userSpaceOnUse">
                                <stop stop-color="#2F69CF"></stop>
                                <stop offset="1" stop-color="#417BDF" stop-opacity="0"></stop>
                            </linearGradient>
                            <linearGradient id="paint4_linear_35228_594221" x1="9.96281" y1="1" x2="9.96281" y2="22.119"
                                gradientUnits="userSpaceOnUse">
                                <stop offset="0.0001" stop-color="#D1F8FF"></stop>
                                <stop offset="1" stop-color="#B0F3FF"></stop>
                            </linearGradient>
                        </defs>
                    </svg>